<?xml version="1.0" encoding="utf-8"?>
<!-- Generator: Adobe Illustrator 16.0.4, SVG Export Plug-In . SVG Version: 6.00 Build 0)  -->
<!DOCTYPE svg PUBLIC "-//W3C//DTD SVG 1.1//EN" "http://www.w3.org/Graphics/SVG/1.1/DTD/svg11.dtd">
<svg version="1.1" id="Capa_1" xmlns="http://www.w3.org/2000/svg" xmlns:xlink="http://www.w3.org/1999/xlink" x="0px" y="0px"
	 width="64px" height="64px" viewBox="0 0 64 64" enable-background="new 0 0 64 64" xml:space="preserve">
<g>
	<path d="M30.209,51.068h-0.754c-0.417,0-0.754,0.339-0.754,0.756v1.035c0,0.418,0.337,0.757,0.754,0.757h0.754
		c0.417,0,0.755-0.339,0.755-0.757v-1.035C30.964,51.407,30.626,51.068,30.209,51.068z"/>
	<path d="M34.209,51.068h-0.754c-0.417,0-0.755,0.339-0.755,0.756v1.035c0,0.418,0.338,0.757,0.755,0.757h0.754
		c0.417,0,0.755-0.339,0.755-0.757v-1.035C34.964,51.407,34.626,51.068,34.209,51.068z"/>
	<path d="M55.173,6.686H8.491c-1.657,0-2.914,1.341-2.807,2.994l2.924,45.441c0.106,1.652,1.536,2.994,3.193,2.994h14.178
		l-0.808-8.17c-0.163-1.648,1.048-2.985,2.705-2.985h8.112c1.658,0,2.869,1.337,2.705,2.985l-0.809,8.17h13.979
		c1.658,0,3.087-1.342,3.193-2.994L57.98,9.68C58.087,8.026,56.83,6.686,55.173,6.686z M43.366,24.285
		c0-0.6,0.485-1.087,1.086-1.087h3.358c0.6,0,1.086,0.487,1.086,1.087v4.667c0,0.602-0.486,1.088-1.086,1.088h-3.358
		c-0.601,0-1.086-0.486-1.086-1.088V24.285z M20.298,52.814c0,0.601-0.487,1.086-1.087,1.086h-3.358c-0.6,0-1.086-0.485-1.086-1.086
		v-4.67c0-0.6,0.486-1.086,1.086-1.086h3.358c0.6,0,1.087,0.486,1.087,1.086V52.814z M20.298,40.495
		c0,0.603-0.487,1.087-1.087,1.087h-3.358c-0.6,0-1.086-0.484-1.086-1.087v-4.668c0-0.601,0.486-1.087,1.086-1.087h3.358
		c0.6,0,1.087,0.486,1.087,1.087V40.495z M20.298,28.952c0,0.602-0.487,1.088-1.087,1.088h-3.358c-0.6,0-1.086-0.486-1.086-1.088
		v-4.667c0-0.6,0.486-1.087,1.086-1.087h3.358c0.6,0,1.087,0.487,1.087,1.087V28.952z M29.835,40.495
		c0,0.603-0.486,1.087-1.086,1.087h-3.358c-0.6,0-1.086-0.484-1.086-1.087v-4.668c0-0.601,0.487-1.087,1.086-1.087h3.358
		c0.6,0,1.086,0.486,1.086,1.087V40.495z M29.835,28.952c0,0.602-0.486,1.088-1.086,1.088h-3.358c-0.6,0-1.086-0.486-1.086-1.088
		v-4.667c0-0.6,0.487-1.087,1.086-1.087h3.358c0.6,0,1.086,0.487,1.086,1.087V28.952z M33.361,16.266v2.844
		c0,0.188-0.151,0.339-0.34,0.339h-2.379c-0.19,0-0.342-0.15-0.342-0.339v-2.844c0-0.189-0.149-0.339-0.339-0.339h-2.843
		c-0.188,0-0.339-0.153-0.339-0.34v-2.38c0-0.188,0.151-0.339,0.339-0.339h2.843c0.191,0,0.339-0.154,0.339-0.342V9.683
		c0-0.188,0.151-0.339,0.342-0.339h2.379c0.188,0,0.34,0.151,0.34,0.339v2.844c0,0.188,0.15,0.342,0.34,0.342h2.843
		c0.188,0,0.34,0.15,0.34,0.339v2.38c0,0.187-0.151,0.34-0.34,0.34h-2.843C33.514,15.927,33.361,16.076,33.361,16.266z
		 M39.359,40.495c0,0.603-0.486,1.087-1.088,1.087h-3.358c-0.601,0-1.086-0.484-1.086-1.087v-4.668c0-0.601,0.485-1.087,1.086-1.087
		h3.358c0.602,0,1.088,0.486,1.088,1.087V40.495z M39.359,28.952c0,0.602-0.486,1.088-1.088,1.088h-3.358
		c-0.601,0-1.086-0.486-1.086-1.088v-4.667c0-0.6,0.485-1.087,1.086-1.087h3.358c0.602,0,1.088,0.487,1.088,1.087V28.952z
		 M43.366,35.827c0-0.601,0.485-1.087,1.086-1.087h3.358c0.6,0,1.086,0.486,1.086,1.087v4.668c0,0.603-0.486,1.087-1.086,1.087
		h-3.358c-0.601,0-1.086-0.484-1.086-1.087V35.827z M48.898,52.814c0,0.601-0.487,1.086-1.088,1.086h-3.357
		c-0.602,0-1.086-0.485-1.086-1.086v-4.67c0-0.6,0.484-1.086,1.086-1.086h3.357c0.601,0,1.088,0.486,1.088,1.086V52.814z"/>
</g>
</svg>
